<?xml version="1.0" standalone="no"?>
<!DOCTYPE svg PUBLIC "-//W3C//DTD SVG 20010904//EN"
 "http://www.w3.org/TR/2001/REC-SVG-20010904/DTD/svg10.dtd">
<svg version="1.0" xmlns="http://www.w3.org/2000/svg"
 width="260.000000pt" height="260.000000pt" viewBox="0 0 260.000000 260.000000"
 preserveAspectRatio="xMidYMid meet">
<metadata>
Created by potrace 1.16, written by Peter Selinger 2001-2019
</metadata>
<g transform="translate(0.000000,260.000000) scale(0.100000,-0.100000)"
fill="#000000" stroke="none">
<path d="M1155 2584 c-176 -24 -314 -63 -440 -126 -318 -160 -557 -443 -661
-783 -26 -84 -28 -105 -32 -310 -4 -239 0 -279 50 -435 62 -196 154 -346 308
-501 243 -246 537 -369 885 -369 273 0 515 76 733 230 268 189 460 493 516
815 20 114 20 317 1 428 -47 267 -160 485 -354 678 -190 189 -405 306 -653
354 -82 16 -294 27 -353 19z m345 -70 c221 -41 434 -152 601 -311 450 -428
508 -1118 135 -1614 -169 -225 -393 -372 -686 -450 -107 -29 -362 -37 -485
-16 -376 66 -699 304 -872 643 -105 206 -138 356 -130 599 6 183 28 288 94
440 107 248 327 481 568 603 122 61 291 110 440 126 68 7 250 -4 335 -20z"/>
<path d="M1378 1148 c-29 -10 -35 -27 -17 -45 5 -5 11 -21 13 -34 3 -33 14
-49 33 -49 11 0 14 6 9 26 -6 21 -4 25 11 22 10 -2 19 -13 21 -26 3 -18 10
-22 40 -22 56 0 112 11 106 21 -3 5 -13 9 -23 9 -13 0 -20 10 -25 30 -5 25
-16 35 -58 55 -58 27 -69 28 -110 13z"/>
</g>
</svg>
